# xmcd
#
# Track frame offsets:
#	150
#	23290
#	39540
#	61875
#	77460
#	91867
#	113265
#	130275
#	149890
#	161945
#	179612
#	193417
#
# Disc length: 2745 seconds
#
# Revision: 5
# Processed by: cddbd v1.5.2PL0 Copyright (c) Steve Scherf et al.
# Submitted via: audiograbber 1.83.01
#
DISCID=9f0ab70c
DTITLE=Lilac Time, The - Lilac6
DYEAR=2001
DGENRE=Rock
TTITLE0=Dance out of the shadows
TTITLE1=This morning
TTITLE2=Come home everyone
TTITLE3=My Forest Brown
TTITLE4=I want to be your man
TTITLE5=Jupe longue
TTITLE6=Jeans and summer
TTITLE7=Wasted
TTITLE8=Entourge
TTITLE9=Fog lights
TTITLE10=The last man on the moon
TTITLE11=Junes Buffalo
EXTD=
EXTT0=
EXTT1=
EXTT2=
EXTT3=
EXTT4=
EXTT5=
EXTT6=
EXTT7=
EXTT8=
EXTT9=
EXTT10=
EXTT11=
PLAYORDER=
